<svg xmlns="http://www.w3.org/2000/svg" xmlns:xlink="http://www.w3.org/1999/xlink" width="1080" zoomAndPan="magnify" viewBox="0 0 810 809.999993" height="1080" preserveAspectRatio="xMidYMid meet" version="1.0"><defs><clipPath id="5fd5f65759"><path d="M 20 9 L 791.335938 9 L 791.335938 802 L 20 802 Z M 20 9 " clip-rule="nonzero"/></clipPath></defs><g clip-path="url(#5fd5f65759)"><path fill="#f9ff1e" d="M 406.15625 801.058594 C 401.53125 801.082031 397.023438 800.367188 392.632812 798.917969 L 135.84375 713.3125 C 133.960938 712.683594 132.128906 711.929688 130.347656 711.046875 C 128.570312 710.164062 126.859375 709.160156 125.21875 708.039062 C 123.582031 706.917969 122.027344 705.6875 120.558594 704.351562 C 119.089844 703.015625 117.722656 701.582031 116.453125 700.054688 C 115.183594 698.523438 114.023438 696.917969 112.980469 695.226562 C 111.933594 693.539062 111.011719 691.785156 110.210938 689.96875 C 109.410156 688.148438 108.738281 686.285156 108.195312 684.375 C 107.65625 682.464844 107.25 680.523438 106.976562 678.554688 L 21.382812 57.917969 C 21.277344 57.164062 21.191406 56.40625 21.125 55.648438 C 21.0625 54.886719 21.015625 54.125 20.992188 53.363281 C 20.96875 52.601562 20.964844 51.839844 20.980469 51.078125 C 21 50.316406 21.035156 49.554688 21.09375 48.796875 C 21.148438 48.035156 21.226562 47.277344 21.324219 46.519531 C 21.421875 45.765625 21.542969 45.011719 21.679688 44.261719 C 21.816406 43.511719 21.976562 42.765625 22.152344 42.027344 C 22.332031 41.285156 22.527344 40.546875 22.746094 39.816406 C 22.960938 39.085938 23.199219 38.363281 23.453125 37.644531 C 23.710938 36.925781 23.984375 36.214844 24.28125 35.511719 C 24.574219 34.808594 24.886719 34.113281 25.214844 33.425781 C 25.546875 32.742188 25.898438 32.0625 26.261719 31.394531 C 26.628906 30.726562 27.015625 30.070312 27.417969 29.421875 C 27.820312 28.773438 28.238281 28.136719 28.675781 27.511719 C 29.113281 26.886719 29.5625 26.273438 30.035156 25.675781 C 30.503906 25.074219 30.988281 24.484375 31.488281 23.910156 C 31.988281 23.335938 32.503906 22.773438 33.035156 22.226562 C 33.5625 21.679688 34.109375 21.148438 34.667969 20.628906 C 35.226562 20.109375 35.796875 19.605469 36.382812 19.117188 C 36.96875 18.632812 37.570312 18.160156 38.179688 17.703125 C 38.789062 17.246094 39.414062 16.808594 40.046875 16.386719 C 40.683594 15.964844 41.328125 15.558594 41.984375 15.171875 C 42.640625 14.78125 43.304688 14.410156 43.980469 14.058594 C 44.65625 13.707031 45.339844 13.371094 46.035156 13.058594 C 46.730469 12.742188 47.429688 12.445312 48.140625 12.164062 C 48.851562 11.886719 49.566406 11.628906 50.289062 11.386719 C 51.011719 11.148438 51.742188 10.925781 52.476562 10.726562 C 53.210938 10.523438 53.953125 10.34375 54.699219 10.183594 C 55.441406 10.019531 56.191406 9.878906 56.945312 9.757812 C 57.695312 9.636719 58.453125 9.535156 59.210938 9.453125 C 59.96875 9.371094 60.726562 9.3125 61.488281 9.269531 C 62.25 9.230469 63.011719 9.210938 63.773438 9.210938 L 748.539062 9.210938 C 750.0625 9.210938 751.582031 9.289062 753.097656 9.453125 C 754.609375 9.617188 756.113281 9.859375 757.601562 10.183594 C 759.09375 10.503906 760.558594 10.90625 762.007812 11.386719 C 763.453125 11.867188 764.871094 12.421875 766.257812 13.054688 C 767.644531 13.683594 768.992188 14.386719 770.304688 15.164062 C 771.617188 15.9375 772.882812 16.78125 774.105469 17.691406 C 775.328125 18.601562 776.5 19.578125 777.617188 20.613281 C 778.734375 21.648438 779.792969 22.742188 780.796875 23.890625 C 781.796875 25.039062 782.734375 26.238281 783.605469 27.488281 C 784.480469 28.734375 785.285156 30.027344 786.019531 31.363281 C 786.753906 32.699219 787.417969 34.070312 788.003906 35.472656 C 788.59375 36.878906 789.105469 38.3125 789.542969 39.773438 C 789.976562 41.234375 790.335938 42.714844 790.613281 44.210938 C 790.890625 45.710938 791.085938 47.21875 791.203125 48.738281 C 791.320312 50.257812 791.355469 51.78125 791.308594 53.304688 C 791.261719 54.828125 791.136719 56.34375 790.929688 57.855469 L 705.332031 678.492188 C 705.0625 680.460938 704.660156 682.40625 704.121094 684.320312 C 703.582031 686.234375 702.910156 688.101562 702.113281 689.921875 C 701.3125 691.742188 700.390625 693.5 699.34375 695.191406 C 698.300781 696.882812 697.144531 698.496094 695.875 700.027344 C 694.605469 701.558594 693.234375 702.992188 691.765625 704.332031 C 690.296875 705.671875 688.742188 706.90625 687.101562 708.027344 C 685.460938 709.152344 683.75 710.15625 681.96875 711.039062 C 680.1875 711.925781 678.351562 712.683594 676.464844 713.3125 L 419.679688 798.917969 C 415.289062 800.367188 410.78125 801.082031 406.15625 801.058594 Z M 188.144531 640.546875 L 406.15625 713.140625 L 624.167969 640.375 L 699.425781 94.8125 L 112.988281 94.8125 Z M 188.144531 640.546875 " fill-opacity="1" fill-rule="nonzero"/></g><path fill="#f9ff1e" d="M 341.957031 608.445312 C 338.632812 608.445312 335.355469 608.066406 332.121094 607.304688 C 328.882812 606.539062 325.78125 605.414062 322.804688 603.929688 L 237.210938 561.128906 C 235.957031 560.5 234.734375 559.8125 233.546875 559.066406 C 232.359375 558.320312 231.210938 557.515625 230.101562 556.65625 C 228.996094 555.796875 227.929688 554.886719 226.914062 553.921875 C 225.894531 552.957031 224.925781 551.945312 224.003906 550.886719 C 223.085938 549.828125 222.21875 548.726562 221.410156 547.582031 C 220.597656 546.4375 219.84375 545.253906 219.152344 544.035156 C 218.457031 542.816406 217.820312 541.566406 217.25 540.289062 C 216.675781 539.007812 216.167969 537.699219 215.726562 536.371094 C 215.28125 535.039062 214.90625 533.691406 214.59375 532.320312 C 214.28125 530.953125 214.039062 529.574219 213.863281 528.183594 C 213.6875 526.789062 213.582031 525.394531 213.542969 523.992188 C 213.503906 522.589844 213.535156 521.1875 213.636719 519.789062 C 213.734375 518.390625 213.902344 517 214.136719 515.617188 C 214.375 514.234375 214.679688 512.867188 215.046875 511.511719 C 215.417969 510.160156 215.855469 508.828125 216.355469 507.519531 C 216.859375 506.207031 217.421875 504.925781 218.050781 503.671875 C 218.679688 502.417969 219.367188 501.195312 220.113281 500.007812 C 220.859375 498.820312 221.664062 497.675781 222.523438 496.566406 C 223.386719 495.457031 224.296875 494.394531 225.261719 493.378906 C 226.226562 492.359375 227.238281 491.390625 228.300781 490.472656 C 229.359375 489.554688 230.460938 488.6875 231.609375 487.878906 C 232.753906 487.066406 233.933594 486.316406 235.152344 485.621094 C 236.371094 484.929688 237.621094 484.296875 238.902344 483.722656 C 240.183594 483.152344 241.492188 482.644531 242.820312 482.203125 C 244.152344 481.761719 245.5 481.382812 246.871094 481.074219 C 248.238281 480.761719 249.617188 480.519531 251.007812 480.347656 C 252.402344 480.171875 253.796875 480.066406 255.199219 480.03125 C 256.601562 479.992188 258.003906 480.023438 259.402344 480.125 C 260.800781 480.226562 262.191406 480.394531 263.574219 480.632812 C 264.957031 480.867188 266.324219 481.171875 267.675781 481.546875 C 269.027344 481.917969 270.359375 482.355469 271.667969 482.855469 C 272.980469 483.359375 274.261719 483.925781 275.515625 484.554688 L 299.160156 496.386719 L 299.160156 266.023438 L 213.566406 266.023438 C 212.164062 266.023438 210.765625 265.957031 209.371094 265.820312 C 207.976562 265.679688 206.589844 265.476562 205.214844 265.203125 C 203.839844 264.929688 202.484375 264.589844 201.140625 264.179688 C 199.800781 263.773438 198.480469 263.304688 197.1875 262.765625 C 195.890625 262.230469 194.625 261.632812 193.390625 260.96875 C 192.152344 260.308594 190.953125 259.589844 189.789062 258.8125 C 188.621094 258.03125 187.496094 257.199219 186.414062 256.308594 C 185.332031 255.417969 184.292969 254.480469 183.300781 253.488281 C 182.3125 252.496094 181.371094 251.460938 180.480469 250.375 C 179.59375 249.292969 178.757812 248.167969 177.980469 247 C 177.199219 245.835938 176.480469 244.636719 175.820312 243.398438 C 175.160156 242.164062 174.5625 240.898438 174.023438 239.601562 C 173.488281 238.308594 173.015625 236.988281 172.609375 235.648438 C 172.203125 234.304688 171.863281 232.949219 171.589844 231.574219 C 171.316406 230.199219 171.109375 228.8125 170.972656 227.417969 C 170.835938 226.023438 170.765625 224.625 170.765625 223.222656 C 170.765625 221.820312 170.835938 220.421875 170.972656 219.027344 C 171.109375 217.632812 171.316406 216.246094 171.589844 214.871094 C 171.863281 213.496094 172.203125 212.136719 172.609375 210.796875 C 173.015625 209.457031 173.488281 208.136719 174.023438 206.84375 C 174.5625 205.546875 175.160156 204.28125 175.820312 203.046875 C 176.480469 201.808594 177.199219 200.609375 177.980469 199.441406 C 178.757812 198.277344 179.59375 197.152344 180.480469 196.070312 C 181.371094 194.984375 182.3125 193.949219 183.300781 192.957031 C 184.292969 191.964844 185.332031 191.023438 186.414062 190.136719 C 187.496094 189.246094 188.621094 188.410156 189.789062 187.632812 C 190.953125 186.855469 192.152344 186.132812 193.390625 185.472656 C 194.625 184.8125 195.890625 184.214844 197.1875 183.675781 C 198.480469 183.140625 199.800781 182.667969 201.140625 182.261719 C 202.484375 181.855469 203.839844 181.515625 205.214844 181.242188 C 206.589844 180.96875 207.976562 180.761719 209.371094 180.625 C 210.765625 180.488281 212.164062 180.417969 213.566406 180.417969 L 341.957031 180.417969 C 343.359375 180.417969 344.757812 180.488281 346.152344 180.625 C 347.546875 180.761719 348.933594 180.96875 350.308594 181.242188 C 351.683594 181.515625 353.039062 181.855469 354.382812 182.261719 C 355.722656 182.667969 357.042969 183.140625 358.335938 183.675781 C 359.632812 184.214844 360.898438 184.8125 362.132812 185.472656 C 363.371094 186.132812 364.570312 186.855469 365.734375 187.632812 C 366.902344 188.410156 368.027344 189.246094 369.109375 190.136719 C 370.191406 191.023438 371.230469 191.964844 372.222656 192.957031 C 373.210938 193.949219 374.152344 194.984375 375.042969 196.070312 C 375.929688 197.152344 376.765625 198.277344 377.542969 199.441406 C 378.320312 200.609375 379.042969 201.808594 379.703125 203.046875 C 380.363281 204.28125 380.960938 205.546875 381.5 206.84375 C 382.035156 208.136719 382.507812 209.457031 382.914062 210.796875 C 383.320312 212.136719 383.660156 213.496094 383.933594 214.871094 C 384.207031 216.246094 384.414062 217.632812 384.550781 219.027344 C 384.6875 220.421875 384.757812 221.820312 384.757812 223.222656 L 384.757812 565.644531 C 384.757812 567.042969 384.6875 568.441406 384.550781 569.839844 C 384.414062 571.234375 384.207031 572.617188 383.933594 573.992188 C 383.660156 575.367188 383.320312 576.726562 382.914062 578.066406 C 382.507812 579.410156 382.035156 580.726562 381.5 582.023438 C 380.960938 583.316406 380.363281 584.582031 379.703125 585.820312 C 379.042969 587.054688 378.320312 588.257812 377.542969 589.421875 C 376.765625 590.589844 375.929688 591.710938 375.042969 592.796875 C 374.152344 593.878906 373.210938 594.917969 372.222656 595.910156 C 371.230469 596.898438 370.191406 597.839844 369.109375 598.730469 C 368.027344 599.617188 366.902344 600.453125 365.734375 601.230469 C 364.570312 602.011719 363.371094 602.730469 362.132812 603.390625 C 360.898438 604.050781 359.632812 604.652344 358.335938 605.1875 C 357.042969 605.722656 355.722656 606.195312 354.382812 606.601562 C 353.039062 607.007812 351.683594 607.347656 350.308594 607.621094 C 348.933594 607.894531 347.546875 608.101562 346.152344 608.238281 C 344.757812 608.375 343.359375 608.445312 341.957031 608.445312 Z M 341.957031 608.445312 " fill-opacity="1" fill-rule="nonzero"/><path fill="#f9ff1e" d="M 470.351562 608.445312 C 469.058594 608.445312 467.769531 608.382812 466.484375 608.265625 C 465.199219 608.148438 463.921875 607.972656 462.652344 607.738281 C 461.382812 607.503906 460.125 607.214844 458.878906 606.867188 C 457.636719 606.519531 456.410156 606.113281 455.203125 605.65625 C 453.996094 605.199219 452.8125 604.6875 451.652344 604.121094 C 450.488281 603.554688 449.355469 602.9375 448.25 602.269531 C 447.148438 601.601562 446.074219 600.882812 445.035156 600.117188 C 443.992188 599.351562 442.988281 598.542969 442.023438 597.683594 C 441.054688 596.828125 440.128906 595.929688 439.246094 594.992188 C 438.359375 594.050781 437.519531 593.070312 436.722656 592.054688 C 435.925781 591.039062 435.175781 589.988281 434.472656 588.90625 C 433.769531 587.820312 433.121094 586.707031 432.519531 585.5625 C 431.917969 584.421875 431.371094 583.253906 430.875 582.058594 C 430.378906 580.867188 429.9375 579.652344 429.550781 578.421875 C 429.167969 577.1875 428.839844 575.941406 428.566406 574.679688 C 428.292969 573.414062 428.078125 572.144531 427.921875 570.863281 C 427.761719 569.578125 427.664062 568.292969 427.621094 567.003906 C 427.582031 565.710938 427.597656 564.421875 427.675781 563.132812 C 427.75 561.84375 427.882812 560.558594 428.078125 559.28125 C 428.269531 558.003906 428.515625 556.738281 428.824219 555.484375 C 429.128906 554.230469 429.492188 552.992188 429.910156 551.769531 C 430.332031 550.546875 430.804688 549.347656 431.332031 548.167969 C 431.859375 546.988281 432.4375 545.835938 433.070312 544.707031 C 433.699219 543.582031 434.382812 542.488281 435.113281 541.421875 C 435.84375 540.355469 436.621094 539.328125 437.445312 538.332031 C 438.269531 537.335938 439.136719 536.382812 440.046875 535.464844 C 440.957031 534.550781 441.90625 533.675781 442.898438 532.847656 C 443.886719 532.015625 444.910156 531.234375 445.972656 530.496094 C 447.03125 529.757812 448.125 529.070312 449.246094 528.433594 C 450.367188 527.796875 451.519531 527.207031 452.695312 526.675781 C 453.871094 526.140625 455.066406 525.660156 456.285156 525.234375 C 457.507812 524.808594 458.742188 524.4375 459.996094 524.125 L 517.773438 509.699219 L 527.980469 437.234375 L 491.75 437.234375 C 490.699219 437.234375 489.648438 437.210938 488.601562 437.15625 C 487.550781 437.105469 486.503906 437.027344 485.457031 436.925781 C 484.414062 436.824219 483.371094 436.695312 482.332031 436.539062 C 481.292969 436.386719 480.257812 436.207031 479.226562 436 C 478.195312 435.796875 477.171875 435.566406 476.152344 435.3125 C 475.132812 435.054688 474.121094 434.773438 473.117188 434.46875 C 472.109375 434.164062 471.113281 433.835938 470.125 433.480469 C 469.132812 433.128906 468.152344 432.75 467.183594 432.347656 C 466.210938 431.945312 465.253906 431.519531 464.304688 431.070312 C 463.351562 430.621094 462.414062 430.148438 461.488281 429.652344 C 460.5625 429.160156 459.648438 428.640625 458.746094 428.101562 C 457.84375 427.558594 456.957031 427 456.085938 426.414062 C 455.210938 425.832031 454.351562 425.226562 453.507812 424.601562 C 452.664062 423.972656 451.835938 423.328125 451.023438 422.660156 C 450.210938 421.996094 449.417969 421.308594 448.636719 420.601562 C 447.859375 419.898438 447.097656 419.171875 446.355469 418.429688 C 445.613281 417.6875 444.890625 416.925781 444.183594 416.148438 C 443.476562 415.367188 442.792969 414.574219 442.125 413.761719 C 441.460938 412.949219 440.8125 412.121094 440.1875 411.277344 C 439.5625 410.433594 438.957031 409.574219 438.371094 408.699219 C 437.789062 407.828125 437.226562 406.941406 436.6875 406.039062 C 436.148438 405.136719 435.628906 404.222656 435.132812 403.296875 C 434.640625 402.371094 434.167969 401.429688 433.71875 400.480469 C 433.269531 399.53125 432.84375 398.570312 432.441406 397.601562 C 432.039062 396.628906 431.660156 395.648438 431.304688 394.660156 C 430.953125 393.671875 430.625 392.675781 430.316406 391.667969 C 430.011719 390.664062 429.734375 389.652344 429.476562 388.632812 C 429.222656 387.613281 428.992188 386.585938 428.789062 385.554688 C 428.582031 384.527344 428.402344 383.492188 428.25 382.453125 C 428.09375 381.414062 427.964844 380.371094 427.863281 379.324219 C 427.761719 378.277344 427.683594 377.230469 427.632812 376.179688 C 427.578125 375.132812 427.554688 374.082031 427.554688 373.03125 L 427.554688 244.625 C 427.554688 243.574219 427.578125 242.523438 427.632812 241.472656 C 427.683594 240.421875 427.761719 239.375 427.863281 238.332031 C 427.964844 237.285156 428.09375 236.242188 428.25 235.203125 C 428.402344 234.164062 428.582031 233.128906 428.789062 232.097656 C 428.992188 231.066406 429.222656 230.042969 429.476562 229.023438 C 429.734375 228.003906 430.011719 226.992188 430.316406 225.984375 C 430.625 224.980469 430.953125 223.984375 431.304688 222.992188 C 431.660156 222.003906 432.039062 221.023438 432.441406 220.054688 C 432.84375 219.082031 433.269531 218.121094 433.71875 217.171875 C 434.167969 216.222656 434.640625 215.285156 435.132812 214.359375 C 435.628906 213.429688 436.148438 212.515625 436.6875 211.617188 C 437.226562 210.714844 437.789062 209.828125 438.371094 208.953125 C 438.957031 208.078125 439.5625 207.222656 440.1875 206.378906 C 440.8125 205.535156 441.460938 204.707031 442.125 203.894531 C 442.792969 203.082031 443.476562 202.285156 444.183594 201.507812 C 444.890625 200.726562 445.613281 199.96875 446.355469 199.222656 C 447.097656 198.480469 447.859375 197.757812 448.640625 197.050781 C 449.417969 196.347656 450.210938 195.660156 451.023438 194.992188 C 451.835938 194.328125 452.664062 193.679688 453.507812 193.054688 C 454.351562 192.429688 455.210938 191.824219 456.085938 191.238281 C 456.957031 190.65625 457.84375 190.09375 458.746094 189.554688 C 459.648438 189.015625 460.5625 188.496094 461.488281 188 C 462.414062 187.503906 463.351562 187.03125 464.304688 186.582031 C 465.253906 186.132812 466.214844 185.707031 467.183594 185.308594 C 468.152344 184.90625 469.132812 184.527344 470.125 184.171875 C 471.113281 183.820312 472.109375 183.488281 473.117188 183.183594 C 474.121094 182.878906 475.132812 182.597656 476.152344 182.34375 C 477.171875 182.089844 478.195312 181.859375 479.226562 181.652344 C 480.257812 181.449219 481.292969 181.269531 482.332031 181.113281 C 483.371094 180.960938 484.414062 180.832031 485.457031 180.730469 C 486.503906 180.625 487.550781 180.546875 488.601562 180.496094 C 489.648438 180.445312 490.699219 180.417969 491.75 180.417969 L 598.746094 180.417969 C 600.148438 180.417969 601.542969 180.488281 602.941406 180.625 C 604.335938 180.761719 605.71875 180.96875 607.09375 181.242188 C 608.46875 181.515625 609.828125 181.855469 611.167969 182.261719 C 612.511719 182.667969 613.828125 183.140625 615.121094 183.675781 C 616.417969 184.214844 617.683594 184.8125 618.917969 185.472656 C 620.15625 186.132812 621.355469 186.855469 622.523438 187.632812 C 623.6875 188.410156 624.8125 189.246094 625.894531 190.136719 C 626.980469 191.023438 628.015625 191.964844 629.007812 192.957031 C 630 193.949219 630.9375 194.984375 631.828125 196.070312 C 632.71875 197.152344 633.550781 198.277344 634.328125 199.441406 C 635.109375 200.609375 635.828125 201.808594 636.488281 203.046875 C 637.148438 204.28125 637.75 205.546875 638.285156 206.84375 C 638.820312 208.136719 639.292969 209.457031 639.699219 210.796875 C 640.105469 212.136719 640.445312 213.496094 640.71875 214.871094 C 640.992188 216.246094 641.199219 217.632812 641.335938 219.027344 C 641.472656 220.421875 641.542969 221.820312 641.542969 223.222656 C 641.542969 224.625 641.472656 226.023438 641.335938 227.417969 C 641.199219 228.8125 640.992188 230.199219 640.71875 231.574219 C 640.445312 232.949219 640.105469 234.304688 639.699219 235.648438 C 639.292969 236.988281 638.820312 238.308594 638.285156 239.601562 C 637.75 240.898438 637.148438 242.164062 636.488281 243.398438 C 635.828125 244.636719 635.109375 245.835938 634.328125 247 C 633.550781 248.167969 632.71875 249.292969 631.828125 250.375 C 630.9375 251.460938 630 252.496094 629.007812 253.488281 C 628.015625 254.480469 626.980469 255.417969 625.894531 256.308594 C 624.8125 257.199219 623.6875 258.03125 622.523438 258.8125 C 621.355469 259.589844 620.15625 260.308594 618.917969 260.96875 C 617.683594 261.632812 616.417969 262.230469 615.121094 262.765625 C 613.828125 263.304688 612.511719 263.773438 611.167969 264.179688 C 609.828125 264.589844 608.46875 264.929688 607.09375 265.203125 C 605.71875 265.476562 604.335938 265.679688 602.941406 265.820312 C 601.542969 265.957031 600.148438 266.023438 598.746094 266.023438 L 513.148438 266.023438 L 513.148438 351.628906 L 552.652344 351.628906 C 553.703125 351.628906 554.753906 351.65625 555.800781 351.707031 C 556.851562 351.757812 557.898438 351.835938 558.945312 351.9375 C 559.988281 352.042969 561.03125 352.171875 562.070312 352.324219 C 563.109375 352.480469 564.144531 352.660156 565.175781 352.863281 C 566.207031 353.070312 567.230469 353.296875 568.25 353.554688 C 569.269531 353.808594 570.28125 354.089844 571.285156 354.394531 C 572.292969 354.699219 573.289062 355.027344 574.277344 355.382812 C 575.269531 355.738281 576.25 356.113281 577.21875 356.515625 C 578.1875 356.917969 579.148438 357.34375 580.097656 357.792969 C 581.050781 358.242188 581.988281 358.714844 582.914062 359.210938 C 583.839844 359.707031 584.753906 360.222656 585.65625 360.765625 C 586.554688 361.304688 587.445312 361.867188 588.316406 362.449219 C 589.191406 363.035156 590.050781 363.636719 590.894531 364.265625 C 591.738281 364.890625 592.566406 365.535156 593.378906 366.203125 C 594.191406 366.871094 594.984375 367.554688 595.761719 368.261719 C 596.542969 368.96875 597.304688 369.691406 598.046875 370.433594 C 598.789062 371.175781 599.511719 371.9375 600.21875 372.71875 C 600.925781 373.496094 601.609375 374.289062 602.277344 375.101562 C 602.941406 375.914062 603.589844 376.742188 604.214844 377.585938 C 604.839844 378.429688 605.445312 379.289062 606.027344 380.164062 C 606.613281 381.039062 607.175781 381.925781 607.714844 382.828125 C 608.253906 383.726562 608.773438 384.640625 609.269531 385.566406 C 609.761719 386.496094 610.234375 387.433594 610.683594 388.382812 C 611.132812 389.332031 611.558594 390.292969 611.960938 391.265625 C 612.363281 392.234375 612.742188 393.214844 613.097656 394.203125 C 613.449219 395.191406 613.777344 396.191406 614.085938 397.195312 C 614.390625 398.203125 614.667969 399.214844 614.925781 400.234375 C 615.179688 401.253906 615.410156 402.277344 615.613281 403.308594 C 615.820312 404.339844 616 405.375 616.152344 406.414062 C 616.308594 407.453125 616.4375 408.496094 616.539062 409.539062 C 616.640625 410.585938 616.71875 411.632812 616.769531 412.683594 C 616.824219 413.734375 616.847656 414.78125 616.847656 415.832031 C 616.84375 418.933594 616.617188 422.015625 616.164062 425.078125 L 598.316406 550.277344 C 598.019531 552.371094 597.566406 554.433594 596.960938 556.460938 C 596.359375 558.488281 595.609375 560.460938 594.710938 562.375 C 593.816406 564.292969 592.78125 566.132812 591.613281 567.894531 C 590.441406 569.660156 589.148438 571.328125 587.730469 572.898438 C 586.316406 574.46875 584.789062 575.925781 583.15625 577.273438 C 581.523438 578.617188 579.800781 579.835938 577.988281 580.925781 C 576.175781 582.015625 574.289062 582.964844 572.335938 583.773438 C 570.382812 584.585938 568.378906 585.246094 566.324219 585.761719 L 480.730469 607.160156 C 477.324219 608.015625 473.863281 608.445312 470.351562 608.445312 Z M 531.488281 412.792969 Z M 531.488281 412.792969 " fill-opacity="1" fill-rule="nonzero"/></svg>