<svg width="288" height="70" viewBox="0 0 288 70" fill="none" xmlns="http://www.w3.org/2000/svg">
<path d="M9.14773 48.5568V61H2.2017V31.9091H8.92045V43.1875H9.16193C9.65436 41.8428 10.4593 40.7917 11.5767 40.0341C12.7036 39.2765 14.0814 38.8977 15.7102 38.8977C17.2443 38.8977 18.5795 39.2386 19.7159 39.9205C20.8523 40.5928 21.733 41.5445 22.358 42.7756C22.9924 44.0066 23.3049 45.446 23.2955 47.0938V61H16.3494V48.4574C16.3589 47.2453 16.0559 46.2983 15.4403 45.6165C14.8248 44.9347 13.9583 44.5938 12.8409 44.5938C12.1117 44.5938 11.4678 44.7547 10.9091 45.0767C10.3598 45.3892 9.92898 45.839 9.61648 46.4261C9.31345 47.0133 9.1572 47.7235 9.14773 48.5568ZM33.782 61.3693C32.3899 61.3693 31.1541 61.1373 30.0746 60.6733C29.0045 60.1998 28.157 59.4896 27.532 58.5426C26.9164 57.5862 26.6087 56.3883 26.6087 54.9489C26.6087 53.7367 26.8217 52.714 27.2479 51.8807C27.674 51.0473 28.2611 50.3703 29.0092 49.8494C29.7573 49.3286 30.6191 48.9356 31.5945 48.6705C32.5698 48.3958 33.6115 48.2112 34.7195 48.1165C35.96 48.0028 36.959 47.8845 37.7166 47.7614C38.4742 47.6288 39.0234 47.4441 39.3643 47.2074C39.7147 46.9612 39.8899 46.6155 39.8899 46.1705V46.0994C39.8899 45.3703 39.639 44.8068 39.1371 44.4091C38.6352 44.0114 37.9581 43.8125 37.1058 43.8125C36.1873 43.8125 35.4486 44.0114 34.8899 44.4091C34.3312 44.8068 33.9761 45.3561 33.8246 46.0568L27.4183 45.8295C27.6077 44.5038 28.0954 43.3201 28.8814 42.2784C29.6768 41.2273 30.7659 40.4034 32.1484 39.8068C33.5405 39.2008 35.2119 38.8977 37.1626 38.8977C38.5547 38.8977 39.8378 39.0634 41.0121 39.3949C42.1863 39.7169 43.209 40.1903 44.0803 40.8153C44.9515 41.4309 45.6238 42.1884 46.0973 43.0881C46.5803 43.9877 46.8217 45.0152 46.8217 46.1705V61H40.2876V57.9602H40.1172C39.7289 58.6989 39.2318 59.3239 38.6257 59.8352C38.0291 60.3466 37.3236 60.7301 36.5092 60.9858C35.7043 61.2415 34.7952 61.3693 33.782 61.3693ZM35.9268 56.8239C36.675 56.8239 37.3473 56.6723 37.9439 56.3693C38.55 56.0663 39.0329 55.6496 39.3928 55.1193C39.7526 54.5795 39.9325 53.9545 39.9325 53.2443V51.1705C39.7337 51.2746 39.4922 51.3693 39.2081 51.4545C38.9335 51.5398 38.6304 51.6203 38.299 51.696C37.9676 51.7718 37.6267 51.8381 37.2763 51.8949C36.9259 51.9517 36.5897 52.0038 36.2678 52.0511C35.6143 52.1553 35.0556 52.3163 34.5916 52.5341C34.1371 52.7519 33.7867 53.036 33.5405 53.3864C33.3037 53.7273 33.1854 54.1345 33.1854 54.608C33.1854 55.3277 33.4411 55.8769 33.9524 56.2557C34.4732 56.6345 35.1314 56.8239 35.9268 56.8239ZM51.0689 61V31.9091H58.0149V42.9176H58.157C58.4411 42.2547 58.8435 41.6155 59.3643 41C59.8946 40.3845 60.567 39.8826 61.3814 39.4943C62.2053 39.0966 63.1901 38.8977 64.3359 38.8977C65.8511 38.8977 67.2668 39.2955 68.5831 40.0909C69.9089 40.8864 70.9789 42.1127 71.7933 43.7699C72.6077 45.4271 73.0149 47.5388 73.0149 50.1051C73.0149 52.5767 72.6219 54.6458 71.8359 56.3125C71.0594 57.9792 70.0083 59.2292 68.6825 60.0625C67.3662 60.8958 65.9032 61.3125 64.2933 61.3125C63.1948 61.3125 62.2431 61.1326 61.4382 60.7727C60.6333 60.4129 59.9562 59.9394 59.407 59.3523C58.8672 58.7652 58.4505 58.1354 58.157 57.4631H57.9439V61H51.0689ZM57.8729 50.0909C57.8729 51.2652 58.0291 52.2879 58.3416 53.1591C58.6636 54.0303 59.1229 54.7074 59.7195 55.1903C60.3255 55.6638 61.05 55.9006 61.8928 55.9006C62.745 55.9006 63.4695 55.6638 64.0661 55.1903C64.6626 54.7074 65.1125 54.0303 65.4155 53.1591C65.728 52.2879 65.8842 51.2652 65.8842 50.0909C65.8842 48.9167 65.728 47.8987 65.4155 47.0369C65.1125 46.1752 64.6626 45.5076 64.0661 45.0341C63.4789 44.5606 62.7545 44.3239 61.8928 44.3239C61.0405 44.3239 60.3161 44.5559 59.7195 45.0199C59.1229 45.4839 58.6636 46.1468 58.3416 47.0085C58.0291 47.8703 57.8729 48.8977 57.8729 50.0909ZM76.6548 61V39.1818H83.6009V61H76.6548ZM80.1349 36.6392C79.1596 36.6392 78.3215 36.3172 77.6207 35.6733C76.92 35.0199 76.5696 34.2339 76.5696 33.3153C76.5696 32.4062 76.92 31.6297 77.6207 30.9858C78.3215 30.3324 79.1596 30.0057 80.1349 30.0057C81.1198 30.0057 81.9579 30.3324 82.6491 30.9858C83.3499 31.6297 83.7003 32.4062 83.7003 33.3153C83.7003 34.2339 83.3499 35.0199 82.6491 35.6733C81.9579 36.3172 81.1198 36.6392 80.1349 36.6392ZM100.337 39.1818V44.2955H86.5732V39.1818H100.337ZM89.4567 33.9545H96.4027V54.1392C96.4027 54.5653 96.469 54.911 96.6016 55.1761C96.7436 55.4318 96.9472 55.6165 97.2124 55.7301C97.4775 55.8343 97.7947 55.8864 98.1641 55.8864C98.4292 55.8864 98.7086 55.8627 99.0021 55.8153C99.3052 55.7585 99.5324 55.7112 99.6839 55.6733L100.735 60.6875C100.404 60.7822 99.9349 60.9006 99.3288 61.0426C98.7322 61.1847 98.0173 61.2746 97.1839 61.3125C95.5552 61.3883 94.1584 61.1989 92.9936 60.7443C91.8383 60.2803 90.9529 59.5606 90.3374 58.5852C89.7313 57.6098 89.4377 56.3835 89.4567 54.9062V33.9545ZM122.656 45.8438L116.278 46.0142C116.212 45.5597 116.032 45.1572 115.739 44.8068C115.445 44.447 115.062 44.1676 114.588 43.9688C114.124 43.7604 113.584 43.6562 112.969 43.6562C112.164 43.6562 111.477 43.8172 110.909 44.1392C110.35 44.4612 110.076 44.8968 110.085 45.446C110.076 45.8722 110.246 46.2415 110.597 46.554C110.956 46.8665 111.596 47.1174 112.514 47.3068L116.719 48.1023C118.897 48.5189 120.516 49.2102 121.577 50.1761C122.647 51.142 123.187 52.4205 123.196 54.0114C123.187 55.5076 122.741 56.8097 121.861 57.9176C120.99 59.0256 119.796 59.8873 118.281 60.5028C116.766 61.1089 115.033 61.4119 113.082 61.4119C109.967 61.4119 107.509 60.7727 105.71 59.4943C103.92 58.2064 102.898 56.483 102.642 54.3239L109.503 54.1534C109.654 54.9489 110.047 55.5549 110.682 55.9716C111.316 56.3883 112.126 56.5966 113.111 56.5966C114.001 56.5966 114.725 56.4309 115.284 56.0994C115.843 55.768 116.127 55.3277 116.136 54.7784C116.127 54.286 115.909 53.893 115.483 53.5994C115.057 53.2964 114.389 53.0597 113.48 52.8892L109.673 52.1648C107.486 51.767 105.857 51.0331 104.787 49.9631C103.717 48.8835 103.187 47.5104 103.196 45.8438C103.187 44.3854 103.575 43.1402 104.361 42.108C105.147 41.0663 106.264 40.2708 107.713 39.7216C109.162 39.1723 110.871 38.8977 112.841 38.8977C115.795 38.8977 118.125 39.518 119.83 40.7585C121.534 41.9896 122.476 43.6847 122.656 45.8438ZM144.357 61.4403C142.312 61.4403 140.546 61.0758 139.059 60.3466C137.582 59.6174 136.445 58.6373 135.65 57.4062C134.854 56.1657 134.457 54.7879 134.457 53.2727C134.457 52.1553 134.674 51.1705 135.11 50.3182C135.555 49.4564 136.166 48.6657 136.942 47.946C137.728 47.2169 138.642 46.5019 139.684 45.8011L145.792 41.8949C146.483 41.4593 146.971 41 147.255 40.517C147.549 40.0341 147.695 39.5511 147.695 39.0682C147.695 38.5473 147.492 38.0739 147.085 37.6477C146.687 37.2216 146.095 37.0133 145.309 37.0227C144.807 37.0227 144.371 37.1269 144.002 37.3352C143.633 37.5436 143.344 37.8229 143.136 38.1733C142.937 38.5237 142.837 38.9214 142.837 39.3665C142.837 39.9441 143.003 40.536 143.335 41.142C143.666 41.7481 144.111 42.392 144.67 43.0739C145.238 43.7557 145.868 44.5085 146.559 45.3324L160.494 61H153.42L141.758 48.3438C141.095 47.6051 140.399 46.7765 139.67 45.858C138.941 44.9394 138.325 43.9356 137.823 42.8466C137.321 41.7481 137.07 40.5549 137.07 39.267C137.07 37.8182 137.411 36.5066 138.093 35.3324C138.775 34.1581 139.731 33.2254 140.962 32.5341C142.203 31.8333 143.647 31.483 145.295 31.483C146.886 31.483 148.259 31.8097 149.414 32.4631C150.569 33.1165 151.46 33.983 152.085 35.0625C152.71 36.142 153.022 37.3258 153.022 38.6136C153.022 39.9773 152.686 41.232 152.013 42.3778C151.341 43.5142 150.389 44.5227 149.158 45.4034L143.178 49.679C142.544 50.1335 142.047 50.6212 141.687 51.142C141.327 51.6534 141.147 52.2121 141.147 52.8182C141.147 53.4432 141.294 53.9877 141.587 54.4517C141.89 54.9157 142.317 55.2803 142.866 55.5455C143.415 55.8106 144.059 55.9432 144.798 55.9432C145.782 55.9432 146.767 55.7112 147.752 55.2472C148.737 54.7737 149.637 54.1108 150.451 53.2585C151.265 52.3968 151.919 51.3788 152.411 50.2045C152.904 49.0208 153.15 47.7235 153.15 46.3125H158.746C158.746 48.0549 158.562 49.6742 158.192 51.1705C157.823 52.6572 157.269 53.9924 156.531 55.1761C155.801 56.3504 154.897 57.3258 153.817 58.1023C153.477 58.2917 153.145 58.4716 152.823 58.642C152.501 58.8125 152.17 58.9924 151.829 59.1818C150.711 59.9867 149.499 60.5644 148.192 60.9148C146.895 61.2652 145.617 61.4403 144.357 61.4403ZM181.396 69.6364C179.322 69.6364 177.546 69.3475 176.069 68.7699C174.592 68.1922 173.432 67.4015 172.589 66.3977C171.746 65.3939 171.239 64.2576 171.069 62.9886L177.646 62.6193C177.769 63.0644 177.996 63.4527 178.327 63.7841C178.668 64.1155 179.109 64.3712 179.648 64.5511C180.198 64.7311 180.842 64.821 181.58 64.821C182.745 64.821 183.706 64.5369 184.464 63.9688C185.231 63.41 185.614 62.4299 185.614 61.0284V57.1932H185.373C185.098 57.8655 184.682 58.4669 184.123 58.9972C183.564 59.5275 182.868 59.9441 182.035 60.2472C181.211 60.5502 180.264 60.7017 179.194 60.7017C177.603 60.7017 176.145 60.3324 174.819 59.5938C173.503 58.8456 172.447 57.6903 171.651 56.1278C170.865 54.5559 170.472 52.5341 170.472 50.0625C170.472 47.5152 170.879 45.4176 171.694 43.7699C172.508 42.1127 173.574 40.8864 174.89 40.0909C176.216 39.2955 177.641 38.8977 179.165 38.8977C180.311 38.8977 181.291 39.0966 182.106 39.4943C182.93 39.8826 183.607 40.3845 184.137 41C184.667 41.6155 185.07 42.2547 185.344 42.9176H185.543V39.1818H192.461V61.0852C192.461 62.9318 191.997 64.4896 191.069 65.7585C190.141 67.0275 188.844 67.9886 187.177 68.642C185.51 69.3049 183.583 69.6364 181.396 69.6364ZM181.609 55.6449C182.451 55.6449 183.171 55.4223 183.768 54.9773C184.364 54.5322 184.824 53.893 185.146 53.0597C185.468 52.2263 185.629 51.2273 185.629 50.0625C185.629 48.8788 185.468 47.8608 185.146 47.0085C184.833 46.1468 184.374 45.4839 183.768 45.0199C183.171 44.5559 182.451 44.3239 181.609 44.3239C180.747 44.3239 180.018 44.5606 179.421 45.0341C178.825 45.5076 178.37 46.1752 178.058 47.0369C177.754 47.8892 177.603 48.8977 177.603 50.0625C177.603 51.2273 177.759 52.2263 178.072 53.0597C178.384 53.893 178.834 54.5322 179.421 54.9773C180.018 55.4223 180.747 55.6449 181.609 55.6449ZM207.074 61.4119C204.782 61.4119 202.813 60.9432 201.165 60.0057C199.527 59.0587 198.262 57.7424 197.372 56.0568C196.491 54.3617 196.051 52.3968 196.051 50.1619C196.051 47.9176 196.491 45.9527 197.372 44.267C198.262 42.572 199.527 41.2557 201.165 40.3182C202.813 39.3712 204.782 38.8977 207.074 38.8977C209.366 38.8977 211.33 39.3712 212.969 40.3182C214.616 41.2557 215.881 42.572 216.761 44.267C217.652 45.9527 218.097 47.9176 218.097 50.1619C218.097 52.3968 217.652 54.3617 216.761 56.0568C215.881 57.7424 214.616 59.0587 212.969 60.0057C211.33 60.9432 209.366 61.4119 207.074 61.4119ZM207.116 56.1705C207.95 56.1705 208.655 55.9148 209.233 55.4034C209.811 54.892 210.251 54.1818 210.554 53.2727C210.866 52.3636 211.023 51.3125 211.023 50.1193C211.023 48.9072 210.866 47.8466 210.554 46.9375C210.251 46.0284 209.811 45.3182 209.233 44.8068C208.655 44.2955 207.95 44.0398 207.116 44.0398C206.255 44.0398 205.526 44.2955 204.929 44.8068C204.342 45.3182 203.892 46.0284 203.58 46.9375C203.277 47.8466 203.125 48.9072 203.125 50.1193C203.125 51.3125 203.277 52.3636 203.58 53.2727C203.892 54.1818 204.342 54.892 204.929 55.4034C205.526 55.9148 206.255 56.1705 207.116 56.1705ZM227.805 61.3693C226.413 61.3693 225.178 61.1373 224.098 60.6733C223.028 60.1998 222.18 59.4896 221.555 58.5426C220.94 57.5862 220.632 56.3883 220.632 54.9489C220.632 53.7367 220.845 52.714 221.271 51.8807C221.697 51.0473 222.285 50.3703 223.033 49.8494C223.781 49.3286 224.643 48.9356 225.618 48.6705C226.593 48.3958 227.635 48.2112 228.743 48.1165C229.983 48.0028 230.982 47.8845 231.74 47.7614C232.498 47.6288 233.047 47.4441 233.388 47.2074C233.738 46.9612 233.913 46.6155 233.913 46.1705V46.0994C233.913 45.3703 233.662 44.8068 233.161 44.4091C232.659 44.0114 231.982 43.8125 231.129 43.8125C230.211 43.8125 229.472 44.0114 228.913 44.4091C228.355 44.8068 228 45.3561 227.848 46.0568L221.442 45.8295C221.631 44.5038 222.119 43.3201 222.905 42.2784C223.7 41.2273 224.789 40.4034 226.172 39.8068C227.564 39.2008 229.235 38.8977 231.186 38.8977C232.578 38.8977 233.861 39.0634 235.036 39.3949C236.21 39.7169 237.232 40.1903 238.104 40.8153C238.975 41.4309 239.647 42.1884 240.121 43.0881C240.604 43.9877 240.845 45.0152 240.845 46.1705V61H234.311V57.9602H234.141C233.752 58.6989 233.255 59.3239 232.649 59.8352C232.053 60.3466 231.347 60.7301 230.533 60.9858C229.728 61.2415 228.819 61.3693 227.805 61.3693ZM229.95 56.8239C230.698 56.8239 231.371 56.6723 231.967 56.3693C232.573 56.0663 233.056 55.6496 233.416 55.1193C233.776 54.5795 233.956 53.9545 233.956 53.2443V51.1705C233.757 51.2746 233.516 51.3693 233.232 51.4545C232.957 51.5398 232.654 51.6203 232.322 51.696C231.991 51.7718 231.65 51.8381 231.3 51.8949C230.949 51.9517 230.613 52.0038 230.291 52.0511C229.638 52.1553 229.079 52.3163 228.615 52.5341C228.161 52.7519 227.81 53.036 227.564 53.3864C227.327 53.7273 227.209 54.1345 227.209 54.608C227.209 55.3277 227.464 55.8769 227.976 56.2557C228.497 56.6345 229.155 56.8239 229.95 56.8239ZM252.038 31.9091V61H245.092V31.9091H252.038ZM275.508 45.8438L269.13 46.0142C269.064 45.5597 268.884 45.1572 268.59 44.8068C268.297 44.447 267.913 44.1676 267.44 43.9688C266.976 43.7604 266.436 43.6562 265.82 43.6562C265.015 43.6562 264.329 43.8172 263.761 44.1392C263.202 44.4612 262.927 44.8968 262.937 45.446C262.927 45.8722 263.098 46.2415 263.448 46.554C263.808 46.8665 264.447 47.1174 265.366 47.3068L269.57 48.1023C271.748 48.5189 273.368 49.2102 274.428 50.1761C275.498 51.142 276.038 52.4205 276.048 54.0114C276.038 55.5076 275.593 56.8097 274.712 57.9176C273.841 59.0256 272.648 59.8873 271.133 60.5028C269.618 61.1089 267.885 61.4119 265.934 61.4119C262.818 61.4119 260.361 60.7727 258.562 59.4943C256.772 58.2064 255.749 56.483 255.494 54.3239L262.354 54.1534C262.506 54.9489 262.899 55.5549 263.533 55.9716C264.168 56.3883 264.978 56.5966 265.962 56.5966C266.853 56.5966 267.577 56.4309 268.136 56.0994C268.694 55.768 268.978 55.3277 268.988 54.7784C268.978 54.286 268.761 53.893 268.335 53.5994C267.908 53.2964 267.241 53.0597 266.332 52.8892L262.525 52.1648C260.337 51.767 258.709 51.0331 257.638 49.9631C256.568 48.8835 256.038 47.5104 256.048 45.8438C256.038 44.3854 256.426 43.1402 257.212 42.108C257.998 41.0663 259.116 40.2708 260.565 39.7216C262.013 39.1723 263.723 38.8977 265.692 38.8977C268.647 38.8977 270.977 39.518 272.681 40.7585C274.386 41.9896 275.328 43.6847 275.508 45.8438Z" fill="white"/>
<rect x="0.5" y="0.499542" width="15" height="15" rx="3.5" fill="#18181B" stroke="#27272A"/>
<rect x="20.5" y="0.499542" width="15" height="15" rx="3.5" fill="#CA8A04" stroke="#A16207"/>
<rect x="40.5" y="0.499542" width="15" height="15" rx="3.5" fill="#EAB308" stroke="#CA8A04"/>
<rect x="60.5" y="0.499542" width="15" height="15" rx="3.5" fill="#FACC15" stroke="#EAB308"/>
<rect x="80.5" y="0.499542" width="15" height="15" rx="3.5" fill="#FDE047" stroke="#FACC15"/>
<rect x="100.5" y="0.499542" width="15" height="15" rx="3.5" fill="#FEF08A" stroke="#FDE047"/>
</svg>
