<svg xmlns="http://www.w3.org/2000/svg" xmlns:xlink="http://www.w3.org/1999/xlink" width="1080" zoomAndPan="magnify" viewBox="0 0 810 809.999993" height="1080" preserveAspectRatio="xMidYMid meet" version="1.0"><defs><clipPath id="bbcac3fbae"><path d="M 8.128906 52 L 801 52 L 801 758 L 8.128906 758 Z M 8.128906 52 " clip-rule="nonzero"/></clipPath></defs><g clip-path="url(#bbcac3fbae)"><path fill="#00d8ff" d="M 660.015625 280.890625 C 651.816406 278.0625 643.3125 275.386719 634.527344 272.855469 C 635.980469 266.976562 637.308594 261.175781 638.484375 255.472656 C 657.757812 161.816406 645.167969 86.367188 602.078125 61.523438 C 560.75 37.707031 493.191406 62.539062 424.953125 121.914062 C 418.398438 127.625 411.808594 133.667969 405.25 140.003906 C 400.859375 135.8125 396.496094 131.761719 392.132812 127.886719 C 320.617188 64.402344 248.9375 37.644531 205.894531 62.558594 C 164.621094 86.449219 152.402344 157.378906 169.773438 246.136719 C 171.449219 254.710938 173.410156 263.464844 175.625 272.367188 C 165.484375 275.246094 155.6875 278.316406 146.320312 281.582031 C 62.480469 310.804688 8.9375 356.613281 8.9375 404.128906 C 8.9375 453.179688 66.417969 502.417969 153.742188 532.265625 C 160.628906 534.617188 167.78125 536.84375 175.148438 538.945312 C 172.757812 548.566406 170.679688 558 168.929688 567.214844 C 152.371094 654.433594 165.304688 723.683594 206.464844 747.40625 C 248.980469 771.933594 320.339844 746.726562 389.816406 686.011719 C 395.320312 681.21875 400.828125 676.117188 406.332031 670.796875 C 413.507812 677.664062 420.65625 684.1875 427.738281 690.3125 C 495.050781 748.210938 561.523438 771.59375 602.632812 747.808594 C 645.105469 723.21875 658.933594 648.804688 640.992188 558.308594 C 639.628906 551.378906 638.019531 544.328125 636.257812 537.152344 C 641.269531 535.667969 646.1875 534.121094 650.980469 532.542969 C 741.769531 502.449219 800.820312 453.859375 800.820312 404.128906 C 800.820312 356.4375 745.542969 310.328125 660.015625 280.890625 Z M 640.339844 500.441406 C 636.011719 501.863281 631.554688 503.253906 627.039062 504.585938 C 617.019531 472.882812 603.5 439.140625 586.917969 404.28125 C 602.726562 370.261719 615.71875 336.960938 625.460938 305.445312 C 633.566406 307.789062 641.425781 310.261719 649.003906 312.871094 C 722.28125 338.09375 766.980469 375.394531 766.980469 404.128906 C 766.980469 434.714844 718.726562 474.460938 640.339844 500.441406 Z M 607.800781 564.863281 C 615.75 604.886719 616.863281 641.074219 611.605469 669.375 C 606.902344 694.796875 597.40625 711.746094 585.683594 718.519531 C 560.71875 732.964844 507.359375 714.1875 449.824219 664.671875 C 443.207031 658.980469 436.554688 652.917969 429.902344 646.515625 C 452.207031 622.113281 474.507812 593.753906 496.285156 562.234375 C 534.550781 558.863281 570.710938 553.296875 603.53125 545.71875 C 605.140625 552.246094 606.5625 558.617188 607.800781 564.863281 Z M 278.921875 716.015625 C 254.539062 724.644531 235.117188 724.890625 223.378906 718.117188 C 198.402344 703.703125 188.015625 648.09375 202.179688 573.523438 C 203.804688 564.988281 205.734375 556.203125 207.960938 547.234375 C 240.398438 554.410156 276.304688 559.574219 314.675781 562.667969 C 336.589844 593.503906 359.542969 621.835938 382.652344 646.640625 C 377.609375 651.527344 372.566406 656.167969 367.554688 660.527344 C 336.839844 687.40625 306.054688 706.457031 278.921875 716.015625 Z M 164.695312 500.253906 C 126.078125 487.046875 94.191406 469.914062 72.332031 451.171875 C 52.691406 434.375 42.777344 417.675781 42.777344 404.128906 C 42.777344 375.300781 85.765625 338.515625 157.464844 313.523438 C 166.167969 310.488281 175.273438 307.628906 184.722656 304.945312 C 194.632812 337.171875 207.632812 370.878906 223.316406 404.933594 C 207.425781 439.511719 194.242188 473.75 184.238281 506.378906 C 177.5 504.429688 170.972656 502.390625 164.695312 500.253906 Z M 202.984375 239.640625 C 188.101562 163.59375 197.984375 106.230469 222.855469 91.832031 C 249.347656 76.5 307.929688 98.363281 369.660156 153.179688 C 373.617188 156.683594 377.578125 160.351562 381.566406 164.144531 C 358.554688 188.847656 335.816406 216.96875 314.097656 247.617188 C 276.855469 251.066406 241.203125 256.609375 208.425781 264.035156 C 206.367188 255.746094 204.542969 247.601562 202.984375 239.640625 Z M 544.542969 323.976562 C 536.71875 310.445312 528.675781 297.230469 520.480469 284.378906 C 545.75 287.574219 569.941406 291.8125 592.675781 297 C 585.871094 318.871094 577.363281 341.734375 567.34375 365.1875 C 560.164062 351.542969 552.554688 337.792969 544.542969 323.976562 Z M 405.253906 188.320312 C 420.875 205.222656 436.496094 224.089844 451.871094 244.566406 C 436.371094 243.835938 420.6875 243.457031 404.882812 243.457031 C 389.230469 243.457031 373.671875 243.828125 358.265625 244.546875 C 373.640625 224.261719 389.414062 205.417969 405.253906 188.320312 Z M 265.070312 324.210938 C 257.246094 337.78125 249.789062 351.453125 242.714844 365.15625 C 232.867188 341.792969 224.4375 318.824219 217.554688 296.640625 C 240.148438 291.585938 264.242188 287.453125 289.347656 284.320312 C 281.03125 297.289062 272.917969 310.597656 265.070312 324.207031 Z M 290.066406 526.328125 C 264.128906 523.453125 239.675781 519.523438 217.089844 514.605469 C 224.082031 492.027344 232.695312 468.582031 242.757812 444.707031 C 249.84375 458.40625 257.328125 472.078125 265.203125 485.6875 L 265.207031 485.6875 C 273.226562 499.542969 281.539062 513.089844 290.066406 526.328125 Z M 406.179688 622.300781 C 390.15625 605.011719 374.164062 585.867188 358.542969 565.296875 C 373.703125 565.886719 389.167969 566.195312 404.882812 566.195312 C 421.027344 566.195312 436.992188 565.824219 452.671875 565.144531 C 437.269531 586.082031 421.679688 605.257812 406.179688 622.300781 Z M 567.652344 443.5 C 578.230469 467.625 587.171875 490.945312 594.253906 513.152344 C 571.300781 518.378906 546.492188 522.585938 520.386719 525.738281 C 528.613281 512.71875 536.71875 499.265625 544.699219 485.441406 C 552.773438 471.460938 560.414062 457.449219 567.652344 443.5 Z M 515.375 468.550781 C 503 490.015625 490.289062 510.492188 477.390625 529.824219 C 453.910156 531.492188 429.628906 532.359375 404.882812 532.359375 C 380.230469 532.359375 356.253906 531.617188 333.179688 530.101562 C 319.753906 510.523438 306.777344 489.984375 294.480469 468.738281 C 282.214844 447.550781 270.921875 426.179688 260.695312 404.933594 C 270.921875 383.652344 282.183594 362.25 294.378906 341.105469 C 306.605469 319.90625 319.476562 299.457031 332.777344 279.988281 C 356.316406 278.207031 380.476562 277.28125 404.882812 277.28125 C 429.414062 277.28125 453.570312 278.214844 477.109375 280.011719 C 490.226562 299.339844 503 319.71875 515.28125 340.925781 C 527.6875 362.375 539.101562 383.621094 549.402344 404.46875 C 539.132812 425.65625 527.75 447.117188 515.375 468.550781 Z M 585.160156 90.820312 C 611.699219 106.109375 622 167.773438 605.328125 248.636719 C 604.277344 253.796875 603.070312 259.050781 601.769531 264.375 C 568.921875 256.796875 533.253906 251.15625 495.917969 247.652344 C 474.140625 216.671875 451.589844 188.503906 428.949219 164.121094 C 435.042969 158.269531 441.136719 152.6875 447.167969 147.417969 C 505.632812 96.550781 560.289062 76.464844 585.160156 90.820312 Z M 404.882812 333.410156 C 443.917969 333.410156 475.59375 365.054688 475.59375 404.117188 C 475.59375 443.152344 443.917969 474.820312 404.882812 474.820312 C 365.84375 474.820312 334.167969 443.152344 334.167969 404.117188 C 334.167969 365.054688 365.84375 333.410156 404.882812 333.410156 Z M 404.882812 333.410156 " fill-opacity="1" fill-rule="nonzero"/></g></svg>