<svg xmlns="http://www.w3.org/2000/svg" xmlns:xlink="http://www.w3.org/1999/xlink" width="1080" zoomAndPan="magnify" viewBox="0 0 810 809.999993" height="1080" preserveAspectRatio="xMidYMid meet" version="1.0"><defs><clipPath id="209add9268"><path d="M 58.53125 7.175781 L 751.53125 7.175781 L 751.53125 802.925781 L 58.53125 802.925781 Z M 58.53125 7.175781 " clip-rule="nonzero"/></clipPath></defs><path fill="#d34231" d="M 266.507812 269.472656 L 266.066406 269.027344 L 168.085938 367.007812 L 405.980469 604.464844 L 503.960938 506.945312 L 643.863281 367.007812 L 545.882812 269.027344 L 545.882812 268.585938 L 266.078125 268.585938 Z M 266.507812 269.472656 " fill-opacity="1" fill-rule="nonzero"/><g clip-path="url(#209add9268)"><path fill="#d34231" d="M 405.085938 7.734375 L 58.613281 206.351562 L 58.625 603.605469 L 405.101562 802.230469 L 751.574219 603.605469 L 751.574219 206.351562 L 405.101562 7.742188 Z M 685.351562 565.625 L 405.085938 727.15625 L 124.820312 565.625 L 124.832031 243.425781 L 405.097656 81.875 L 685.363281 243.417969 L 685.363281 565.617188 Z M 685.351562 565.625 " fill-opacity="1" fill-rule="nonzero"/></g></svg>