<svg xmlns="http://www.w3.org/2000/svg" xmlns:xlink="http://www.w3.org/1999/xlink" width="1080" zoomAndPan="magnify" viewBox="0 0 810 809.999993" height="1080" preserveAspectRatio="xMidYMid meet" version="1.0"><defs><clipPath id="26f6a38d3a"><path d="M 11.410156 85 L 798.910156 85 L 798.910156 728 L 11.410156 728 Z M 11.410156 85 " clip-rule="nonzero"/></clipPath></defs><g clip-path="url(#26f6a38d3a)"><path fill="#ffffff" d="M 405.207031 85.308594 C 394.929688 85.023438 385.03125 87.632812 376.351562 92.859375 L 19.921875 323.054688 C 19.921875 323.054688 19.726562 323.148438 19.632812 323.335938 C 16.929688 324.914062 14.6875 327.257812 12.914062 329.773438 C 11.890625 331.277344 11.503906 332.945312 11.410156 334.527344 C 11.410156 336.222656 11.890625 337.804688 12.914062 339.308594 C 14.78125 341.914062 17.105469 344.253906 19.921875 345.835938 C 19.921875 345.929688 20.089844 345.929688 20.183594 345.929688 L 375.777344 567.25 C 384.644531 572.382812 394.835938 574.992188 405.207031 574.613281 C 415.484375 574.992188 425.652344 572.382812 434.519531 567.25 L 586.84375 472.457031 L 397.726562 346.214844 C 394.566406 344.253906 392.511719 341.070312 391.84375 337.511719 C 391.199219 333.976562 391.84375 330.339844 393.898438 327.355469 C 395.953125 324.371094 398.945312 322.3125 402.410156 321.644531 C 405.949219 320.800781 409.679688 321.644531 412.664062 323.527344 L 612.234375 456.683594 L 790.113281 345.929688 C 790.300781 345.929688 790.398438 345.929688 790.398438 345.835938 C 793.191406 344.253906 795.539062 341.914062 797.40625 339.308594 C 798.429688 337.804688 798.816406 336.222656 798.910156 334.527344 C 798.910156 332.945312 798.429688 331.277344 797.40625 329.773438 C 795.726562 327.257812 793.390625 324.914062 790.6875 323.335938 C 790.492188 323.148438 790.398438 323.148438 790.398438 323.054688 L 433.964844 92.859375 C 425.289062 87.632812 415.390625 85.023438 405.207031 85.308594 Z M 127.402344 444.730469 L 127.402344 499.902344 C 127.589844 508.03125 130.007812 516.0625 134.210938 523.355469 C 137.84375 530.71875 143.277344 537.082031 150.089844 541.742188 L 383.550781 692.847656 C 390.078125 696.863281 397.5625 698.730469 405.207031 698.441406 C 412.757812 698.730469 420.242188 696.863281 426.769531 692.847656 L 597.191406 582.472656 L 597.191406 498.035156 L 448.714844 590.316406 C 448.527344 590.480469 448.527344 590.480469 448.355469 590.574219 C 435.28125 598.253906 420.34375 602.175781 405.207031 601.695312 C 389.976562 602.175781 375.039062 598.253906 361.964844 590.574219 C 361.769531 590.480469 361.699219 590.480469 361.601562 590.316406 Z M 597.191406 582.472656 L 597.191406 674.082031 L 566.929688 704.324219 C 564.519531 706.953125 563.007812 710.300781 563.007812 713.859375 C 563.007812 717.59375 564.519531 720.960938 566.929688 723.472656 C 569.558594 726.074219 573.09375 727.492188 576.566406 727.492188 C 580.292969 727.492188 583.664062 726.074219 586.269531 723.472656 L 610.824219 698.921875 L 635.589844 723.472656 C 638.09375 726.074219 641.558594 727.492188 645.199219 727.492188 C 648.734375 727.492188 652.292969 726.074219 654.804688 723.472656 C 657.246094 720.960938 658.726562 717.59375 658.726562 713.859375 C 658.726562 710.300781 657.246094 706.953125 654.804688 704.324219 L 624.375 674.082031 L 624.375 564.808594 L 660.429688 541.570312 C 674.507812 532.511719 682.917969 516.804688 682.917969 500.101562 L 682.917969 444.730469 L 624.375 481.136719 L 624.375 564.902344 Z M 597.191406 582.472656 " fill-opacity="1" fill-rule="evenodd"/></g></svg>